<?xml version="1.0" encoding="UTF-8" standalone="no"?><svg xmlns="http://www.w3.org/2000/svg" xmlns:xlink="http://www.w3.org/1999/xlink" contentStyleType="text/css" height="405px" preserveAspectRatio="none" style="width:317px;height:405px;background:#FFFFFF;" version="1.1" viewBox="0 0 317 405" width="317px" zoomAndPan="magnify"><defs/><g><!--cluster Tag Engine.lvlib--><g id="cluster_Tag Engine.lvlib"><path d="M8.5,6 L132.5,6 A3.75,3.75 0 0 1 135,8.5 L142,28.2969 L307.5,28.2969 A2.5,2.5 0 0 1 310,30.7969 L310,395.5 A2.5,2.5 0 0 1 307.5,398 L8.5,398 A2.5,2.5 0 0 1 6,395.5 L6,8.5 A2.5,2.5 0 0 1 8.5,6 " fill="none" style="stroke:#000000;stroke-width:1.5;"/><line style="stroke:#000000;stroke-width:1.5;" x1="6" x2="142" y1="28.2969" y2="28.2969"/><text fill="#000000" font-family="sans-serif" font-size="14" font-weight="bold" lengthAdjust="spacing" textLength="123" x="10" y="20.9951">Tag Engine.lvlib</text></g><!--class Tag Engine.lvlib:Tag--><g id="elem_Tag Engine.lvlib:Tag"><rect codeLine="8" fill="#FFFFFF" height="341.3438" id="Tag Engine.lvlib:Tag" rx="2.5" ry="2.5" style="stroke:#555555;stroke-width:0.5;" width="272" x="22" y="41"/><rect fill="#808080" height="32" rx="2.5" ry="2.5" style="stroke:#808080;stroke-width:0.5;" width="272" x="22" y="41"/><rect fill="#808080" height="2.5" style="stroke:#808080;stroke-width:0.5;" width="272" x="22" y="70.5"/><rect codeLine="8" fill="none" height="341.3438" id="Tag Engine.lvlib:Tag" rx="2.5" ry="2.5" style="stroke:#555555;stroke-width:0.5;" width="272" x="22" y="41"/><ellipse cx="140.75" cy="57" fill="#ADD1B2" rx="11" ry="11" style="stroke:#181818;stroke-width:1.0;"/><path d="M143.7188,62.6406 Q143.1406,62.9375 142.5,63.0781 Q141.8594,63.2344 141.1563,63.2344 Q138.6563,63.2344 137.3281,61.5938 Q136.0156,59.9375 136.0156,56.8125 Q136.0156,53.6875 137.3281,52.0313 Q138.6563,50.375 141.1563,50.375 Q141.8594,50.375 142.5,50.5313 Q143.1563,50.6875 143.7188,50.9844 L143.7188,53.7031 Q143.0938,53.125 142.5,52.8594 Q141.9063,52.5781 141.2813,52.5781 Q139.9375,52.5781 139.25,53.6563 Q138.5625,54.7188 138.5625,56.8125 Q138.5625,58.9063 139.25,59.9844 Q139.9375,61.0469 141.2813,61.0469 Q141.9063,61.0469 142.5,60.7813 Q143.0938,60.5 143.7188,59.9219 L143.7188,62.6406 Z " fill="#000000"/><text fill="#000000" font-family="sans-serif" font-size="14" lengthAdjust="spacing" textLength="26" x="161.25" y="61.8467">Tag</text><line style="stroke:#555555;stroke-width:0.5;" x1="23" x2="293" y1="73" y2="73"/><ellipse cx="33" cy="86.6484" fill="none" rx="3" ry="3" style="stroke:#038048;stroke-width:1.0;"/><text fill="#000000" font-family="sans-serif" font-size="14" lengthAdjust="spacing" textLength="93" x="42" y="89.9951">Name : String</text><ellipse cx="33" cy="102.9453" fill="none" rx="3" ry="3" style="stroke:#038048;stroke-width:1.0;"/><text fill="#000000" font-family="sans-serif" font-size="14" lengthAdjust="spacing" textLength="98" x="42" y="106.292">Value : Variant</text><rect fill="none" height="6" style="stroke:#C82930;stroke-width:1.0;" width="6" x="30" y="116.2422"/><text fill="#000000" font-family="sans-serif" font-size="14" lengthAdjust="spacing" textLength="238" x="42" y="122.5889">Enable ValChange Event : Boolean</text><ellipse cx="33" cy="135.5391" fill="none" rx="3" ry="3" style="stroke:#038048;stroke-width:1.0;"/><text fill="#000000" font-family="sans-serif" font-size="14" lengthAdjust="spacing" textLength="158" x="42" y="138.8857">ValChange : UserEvent</text><ellipse cx="33" cy="151.8359" fill="none" rx="3" ry="3" style="stroke:#038048;stroke-width:1.0;"/><text fill="#000000" font-family="sans-serif" font-size="14" lengthAdjust="spacing" textLength="167" x="42" y="155.1826">Timestamp : Timestamp</text><rect fill="none" height="6" style="stroke:#C82930;stroke-width:1.0;" width="6" x="30" y="165.1328"/><text fill="#000000" font-family="sans-serif" font-size="14" lengthAdjust="spacing" textLength="131" x="42" y="171.4795">Properties : Variant</text><ellipse cx="33" cy="184.4297" fill="none" rx="3" ry="3" style="stroke:#038048;stroke-width:1.0;"/><text fill="#000000" font-family="sans-serif" font-size="14" lengthAdjust="spacing" textLength="109" x="42" y="187.7764">Type : Enum {}</text><ellipse cx="33" cy="200.7266" fill="none" rx="3" ry="3" style="stroke:#038048;stroke-width:1.0;"/><text fill="#000000" font-family="sans-serif" font-size="14" lengthAdjust="spacing" textLength="166" x="42" y="204.0732">SetRequest : UserEvent</text><rect fill="none" height="6" style="stroke:#C82930;stroke-width:1.0;" width="6" x="30" y="214.0234"/><text fill="#000000" font-family="sans-serif" font-size="14" lengthAdjust="spacing" textLength="246" x="42" y="220.3701">Enable SetRequest Event : Boolean</text><ellipse cx="33" cy="233.3203" fill="none" rx="3" ry="3" style="stroke:#038048;stroke-width:1.0;"/><text fill="#000000" font-family="sans-serif" font-size="14" lengthAdjust="spacing" textLength="104" x="42" y="236.667">Stale : Boolean</text><ellipse cx="33" cy="249.6172" fill="none" rx="3" ry="3" style="stroke:#038048;stroke-width:1.0;"/><text fill="#000000" font-family="sans-serif" font-size="14" lengthAdjust="spacing" textLength="163" x="42" y="252.9639">TypeString : Array of I16</text><line style="stroke:#555555;stroke-width:0.5;" x1="23" x2="293" y1="260.2656" y2="260.2656"/><ellipse cx="33" cy="273.9141" fill="#84BE84" rx="3" ry="3" style="stroke:#038048;stroke-width:1.0;"/><text fill="#000000" font-family="sans-serif" font-size="14" lengthAdjust="spacing" text-decoration="underline" textLength="160" x="42" y="277.2607">Flatten to JSON Config()</text><ellipse cx="33" cy="290.2109" fill="#84BE84" rx="3" ry="3" style="stroke:#038048;stroke-width:1.0;"/><text fill="#000000" font-family="sans-serif" font-size="14" lengthAdjust="spacing" text-decoration="underline" textLength="192" x="42" y="293.5576">Unflatten from JSON Config()</text><ellipse cx="33" cy="306.5078" fill="#84BE84" rx="3" ry="3" style="stroke:#038048;stroke-width:1.0;"/><text fill="#000000" font-family="sans-serif" font-size="14" lengthAdjust="spacing" text-decoration="underline" textLength="161" x="42" y="309.8545">Get Property by Name()</text><ellipse cx="33" cy="322.8047" fill="#84BE84" rx="3" ry="3" style="stroke:#038048;stroke-width:1.0;"/><text fill="#000000" font-family="sans-serif" font-size="14" lengthAdjust="spacing" text-decoration="underline" textLength="159" x="42" y="326.1514">Set Property by Name()</text><ellipse cx="33" cy="339.1016" fill="#84BE84" rx="3" ry="3" style="stroke:#038048;stroke-width:1.0;"/><text fill="#000000" font-family="sans-serif" font-size="14" lengthAdjust="spacing" text-decoration="underline" textLength="181" x="42" y="342.4482">Set Properties from Initial()</text><ellipse cx="33" cy="355.3984" fill="#84BE84" rx="3" ry="3" style="stroke:#038048;stroke-width:1.0;"/><text fill="#000000" font-family="sans-serif" font-size="14" lengthAdjust="spacing" text-decoration="underline" textLength="70" x="42" y="358.7451">Destruct()</text><ellipse cx="33" cy="371.6953" fill="#84BE84" rx="3" ry="3" style="stroke:#038048;stroke-width:1.0;"/><text fill="#000000" font-family="sans-serif" font-size="14" lengthAdjust="spacing" text-decoration="underline" textLength="78" x="42" y="375.042">Construct()</text></g><!--SRC=[dP9DJuD048Rl-oicUj4OZHuqfZUjr8z3DT9w7-X0DrrcSHcQD8J_xYvYwmV6n24aCE_3pEmxL2J0M51LOaenbUXGh8EHgbQQmri1OuDLTOtfAdUsviNO6W_iJxhuWLct8DSZvrryHoQMfGTEk_WEt17w6ZyQNfw6ItsYnPR-XiIAs08Msb4gsh9AGnNOcs4E4UUQwSIiZKv6Fh47ZMeoJMRHmj7Kdnj648lJdE_IBsZga7z1fv5bAnn7Z8aXdpVZ9N9E4As9nPFNrXf2_bAYHqOmhyXru4wUQM-uO55wUVkyw_FaR4bED5K3KnpDDcKe6t5TGDFkyZ79CxtMljXWqu_fFs6_ZXyB6XeIGkztkxnwvHnkm6PmVtQX6dy6qMaBJK6oj06U61GX3YjwY1-dCBQSwVpWS8YTSzRJcVEx_9E_zRzjRzC6aWs4LGwJyN_8O7qto3rhqMY6FxZn9hewbM7LZx-LLQkKUWC0]--></g></svg>