<?xml version="1.0" encoding="UTF-8" standalone="no"?><svg xmlns="http://www.w3.org/2000/svg" xmlns:xlink="http://www.w3.org/1999/xlink" contentStyleType="text/css" height="405px" preserveAspectRatio="none" style="width:281px;height:405px;background:#FFFFFF;" version="1.1" viewBox="0 0 281 405" width="281px" zoomAndPan="magnify"><defs/><g><!--cluster Tag Engine.lvlib--><g id="cluster_Tag Engine.lvlib"><path d="M8.5,6 L132.5,6 A3.75,3.75 0 0 1 135,8.5 L142,28.2969 L271.5,28.2969 A2.5,2.5 0 0 1 274,30.7969 L274,395.5 A2.5,2.5 0 0 1 271.5,398 L8.5,398 A2.5,2.5 0 0 1 6,395.5 L6,8.5 A2.5,2.5 0 0 1 8.5,6 " fill="none" style="stroke:#000000;stroke-width:1.5;"/><line style="stroke:#000000;stroke-width:1.5;" x1="6" x2="142" y1="28.2969" y2="28.2969"/><text fill="#000000" font-family="sans-serif" font-size="14" font-weight="bold" lengthAdjust="spacing" textLength="123" x="10" y="20.9951">Tag Engine.lvlib</text></g><!--class Tag Engine.lvlib:Tag Core--><g id="elem_Tag Engine.lvlib:Tag Core"><rect codeLine="8" fill="#FFFFFF" height="341.3438" id="Tag Engine.lvlib:Tag Core" rx="2.5" ry="2.5" style="stroke:#555555;stroke-width:0.5;" width="235" x="22.5" y="41"/><rect fill="#808080" height="32" rx="2.5" ry="2.5" style="stroke:#808080;stroke-width:0.5;" width="235" x="22.5" y="41"/><rect fill="#808080" height="2.5" style="stroke:#808080;stroke-width:0.5;" width="235" x="22.5" y="70.5"/><rect codeLine="8" fill="none" height="341.3438" id="Tag Engine.lvlib:Tag Core" rx="2.5" ry="2.5" style="stroke:#555555;stroke-width:0.5;" width="235" x="22.5" y="41"/><ellipse cx="104.25" cy="57" fill="#ADD1B2" rx="11" ry="11" style="stroke:#181818;stroke-width:1.0;"/><path d="M107.2188,62.6406 Q106.6406,62.9375 106,63.0781 Q105.3594,63.2344 104.6563,63.2344 Q102.1563,63.2344 100.8281,61.5938 Q99.5156,59.9375 99.5156,56.8125 Q99.5156,53.6875 100.8281,52.0313 Q102.1563,50.375 104.6563,50.375 Q105.3594,50.375 106,50.5313 Q106.6563,50.6875 107.2188,50.9844 L107.2188,53.7031 Q106.5938,53.125 106,52.8594 Q105.4063,52.5781 104.7813,52.5781 Q103.4375,52.5781 102.75,53.6563 Q102.0625,54.7188 102.0625,56.8125 Q102.0625,58.9063 102.75,59.9844 Q103.4375,61.0469 104.7813,61.0469 Q105.4063,61.0469 106,60.7813 Q106.5938,60.5 107.2188,59.9219 L107.2188,62.6406 Z " fill="#000000"/><text fill="#000000" font-family="sans-serif" font-size="14" lengthAdjust="spacing" textLength="63" x="124.75" y="61.8467">Tag Core</text><line style="stroke:#555555;stroke-width:0.5;" x1="23.5" x2="256.5" y1="73" y2="73"/><rect fill="none" height="6" style="stroke:#C82930;stroke-width:1.0;" width="6" x="30.5" y="83.6484"/><text fill="#000000" font-family="sans-serif" font-size="14" lengthAdjust="spacing" textLength="116" x="42.5" y="89.9951">Tag LUT : Variant</text><line style="stroke:#555555;stroke-width:0.5;" x1="23.5" x2="256.5" y1="97.2969" y2="97.2969"/><rect fill="#F24D5C" height="6" style="stroke:#C82930;stroke-width:1.0;" width="6" x="30.5" y="107.9453"/><text fill="#000000" font-family="sans-serif" font-size="14" lengthAdjust="spacing" text-decoration="underline" textLength="67" x="42.5" y="114.292">Add Tag()</text><rect fill="#F24D5C" height="6" style="stroke:#C82930;stroke-width:1.0;" width="6" x="30.5" y="124.2422"/><text fill="#000000" font-family="sans-serif" font-size="14" lengthAdjust="spacing" text-decoration="underline" textLength="95" x="42.5" y="130.5889">Get Tag LUT()</text><ellipse cx="33.5" cy="143.5391" fill="#84BE84" rx="3" ry="3" style="stroke:#038048;stroke-width:1.0;"/><text fill="#000000" font-family="sans-serif" font-size="14" lengthAdjust="spacing" text-decoration="underline" textLength="154" x="42.5" y="146.8857">Get Tag Value_ByRef()</text><ellipse cx="33.5" cy="159.8359" fill="#84BE84" rx="3" ry="3" style="stroke:#038048;stroke-width:1.0;"/><text fill="#000000" font-family="sans-serif" font-size="14" lengthAdjust="spacing" text-decoration="underline" textLength="209" x="42.5" y="163.1826">Send Tag SetRequest_ByRef()</text><ellipse cx="33.5" cy="176.1328" fill="#84BE84" rx="3" ry="3" style="stroke:#038048;stroke-width:1.0;"/><text fill="#000000" font-family="sans-serif" font-size="14" lengthAdjust="spacing" text-decoration="underline" textLength="151" x="42.5" y="179.4795">Destruct Tag_By Ref()</text><ellipse cx="33.5" cy="192.4297" fill="#84BE84" rx="3" ry="3" style="stroke:#038048;stroke-width:1.0;"/><text fill="#000000" font-family="sans-serif" font-size="14" lengthAdjust="spacing" text-decoration="underline" textLength="92" x="42.5" y="195.7764">Get All Tags()</text><ellipse cx="33.5" cy="208.7266" fill="#84BE84" rx="3" ry="3" style="stroke:#038048;stroke-width:1.0;"/><text fill="#000000" font-family="sans-serif" font-size="14" lengthAdjust="spacing" text-decoration="underline" textLength="65" x="42.5" y="212.0732">Get Tag()</text><ellipse cx="33.5" cy="225.0234" fill="#84BE84" rx="3" ry="3" style="stroke:#038048;stroke-width:1.0;"/><text fill="#000000" font-family="sans-serif" font-size="14" lengthAdjust="spacing" text-decoration="underline" textLength="127" x="42.5" y="228.3701">Get Tag Property()</text><ellipse cx="33.5" cy="241.3203" fill="#84BE84" rx="3" ry="3" style="stroke:#038048;stroke-width:1.0;"/><text fill="#000000" font-family="sans-serif" font-size="14" lengthAdjust="spacing" text-decoration="underline" textLength="194" x="42.5" y="244.667">Get Tag SetRequest Event()</text><ellipse cx="33.5" cy="257.6172" fill="#84BE84" rx="3" ry="3" style="stroke:#038048;stroke-width:1.0;"/><text fill="#000000" font-family="sans-serif" font-size="14" lengthAdjust="spacing" text-decoration="underline" textLength="186" x="42.5" y="260.9639">Get Tag ValChange Event()</text><ellipse cx="33.5" cy="273.9141" fill="#84BE84" rx="3" ry="3" style="stroke:#038048;stroke-width:1.0;"/><text fill="#000000" font-family="sans-serif" font-size="14" lengthAdjust="spacing" text-decoration="underline" textLength="107" x="42.5" y="277.2607">Get Tag Value()</text><ellipse cx="33.5" cy="290.2109" fill="#84BE84" rx="3" ry="3" style="stroke:#038048;stroke-width:1.0;"/><text fill="#000000" font-family="sans-serif" font-size="14" lengthAdjust="spacing" text-decoration="underline" textLength="70" x="42.5" y="293.5576">New Tag()</text><ellipse cx="33.5" cy="306.5078" fill="#84BE84" rx="3" ry="3" style="stroke:#038048;stroke-width:1.0;"/><text fill="#000000" font-family="sans-serif" font-size="14" lengthAdjust="spacing" text-decoration="underline" textLength="197" x="42.5" y="309.8545">New Tag_From JSON Config()</text><ellipse cx="33.5" cy="322.8047" fill="#84BE84" rx="3" ry="3" style="stroke:#038048;stroke-width:1.0;"/><text fill="#000000" font-family="sans-serif" font-size="14" lengthAdjust="spacing" text-decoration="underline" textLength="162" x="42.5" y="326.1514">Send Tag SetRequest()</text><ellipse cx="33.5" cy="339.1016" fill="#84BE84" rx="3" ry="3" style="stroke:#038048;stroke-width:1.0;"/><text fill="#000000" font-family="sans-serif" font-size="14" lengthAdjust="spacing" text-decoration="underline" textLength="125" x="42.5" y="342.4482">Set Tag Property()</text><ellipse cx="33.5" cy="355.3984" fill="#84BE84" rx="3" ry="3" style="stroke:#038048;stroke-width:1.0;"/><text fill="#000000" font-family="sans-serif" font-size="14" lengthAdjust="spacing" text-decoration="underline" textLength="64" x="42.5" y="358.7451">Initialize()</text><ellipse cx="33.5" cy="371.6953" fill="#84BE84" rx="3" ry="3" style="stroke:#038048;stroke-width:1.0;"/><text fill="#000000" font-family="sans-serif" font-size="14" lengthAdjust="spacing" text-decoration="underline" textLength="70" x="42.5" y="375.042">Destruct()</text></g><!--SRC=[ZT9VJy8m403mztwA2xveZ8ON4yCRJl1F31f0Nicn7QEXQsTxm-32TxTTPZGm9hViORrVhhTh7J5epCZb6DE4ShJ8na9FkBNKuIk3IA5pTnYlKsiAdKH6UN0shEA06PkGhSbD5VjaQ3JNe5l5FdWaz3KEDhpjXaVyqMno_yB2C9iC4cafPccqY4CLw4mnXO5EfQPhjL5oqGiBaR7KWLAKIqagsS5LM7nvdq8FPcWbQXQbOsGPxw3CY5Sce7wIW8Vd5qt91p_2kaeZkFm1CrG5pU-sOresmmdfQX-O48_feo37RVpUvsqHLyMzWwCmDD1NAZZNsc9x_s_Mv6Hvswv-UuV1XZJ_EvDeXJgb4t51pMH4dyT_e4xEXzRVa-V9wyXV0xsKwScdS0oUCfSdBLcYab_KVee-AtP2Y6y0]--></g></svg>