<?xml version="1.0" encoding="UTF-8" standalone="no"?><svg xmlns="http://www.w3.org/2000/svg" xmlns:xlink="http://www.w3.org/1999/xlink" contentStyleType="text/css" height="611px" preserveAspectRatio="none" style="width:778px;height:611px;background:#FFFFFF;" version="1.1" viewBox="0 0 778 611" width="778px" zoomAndPan="magnify"><defs/><g><!--cluster Tag Engine.lvlib--><g id="cluster_Tag Engine.lvlib"><path d="M198.5,6 L322.5,6 A3.75,3.75 0 0 1 325,8.5 L332,28.2969 L768.5,28.2969 A2.5,2.5 0 0 1 771,30.7969 L771,395.5 A2.5,2.5 0 0 1 768.5,398 L198.5,398 A2.5,2.5 0 0 1 196,395.5 L196,8.5 A2.5,2.5 0 0 1 198.5,6 " fill="none" style="stroke:#000000;stroke-width:1.5;"/><line style="stroke:#000000;stroke-width:1.5;" x1="196" x2="332" y1="28.2969" y2="28.2969"/><text fill="#000000" font-family="sans-serif" font-size="14" font-weight="bold" lengthAdjust="spacing" textLength="123" x="200" y="20.9951">Tag Engine.lvlib</text></g><!--class Tag Engine.lvlib:Tag Core--><g id="elem_Tag Engine.lvlib:Tag Core"><rect codeLine="8" fill="#FFFFFF" height="341.3438" id="Tag Engine.lvlib:Tag Core" rx="2.5" ry="2.5" style="stroke:#555555;stroke-width:0.5;" width="235" x="519.5" y="41"/><rect fill="#808080" height="32" rx="2.5" ry="2.5" style="stroke:#808080;stroke-width:0.5;" width="235" x="519.5" y="41"/><rect fill="#808080" height="2.5" style="stroke:#808080;stroke-width:0.5;" width="235" x="519.5" y="70.5"/><rect codeLine="8" fill="none" height="341.3438" id="Tag Engine.lvlib:Tag Core" rx="2.5" ry="2.5" style="stroke:#555555;stroke-width:0.5;" width="235" x="519.5" y="41"/><ellipse cx="601.25" cy="57" fill="#ADD1B2" rx="11" ry="11" style="stroke:#181818;stroke-width:1.0;"/><path d="M604.2188,62.6406 Q603.6406,62.9375 603,63.0781 Q602.3594,63.2344 601.6563,63.2344 Q599.1563,63.2344 597.8281,61.5938 Q596.5156,59.9375 596.5156,56.8125 Q596.5156,53.6875 597.8281,52.0313 Q599.1563,50.375 601.6563,50.375 Q602.3594,50.375 603,50.5313 Q603.6563,50.6875 604.2188,50.9844 L604.2188,53.7031 Q603.5938,53.125 603,52.8594 Q602.4063,52.5781 601.7813,52.5781 Q600.4375,52.5781 599.75,53.6563 Q599.0625,54.7188 599.0625,56.8125 Q599.0625,58.9063 599.75,59.9844 Q600.4375,61.0469 601.7813,61.0469 Q602.4063,61.0469 603,60.7813 Q603.5938,60.5 604.2188,59.9219 L604.2188,62.6406 Z " fill="#000000"/><text fill="#000000" font-family="sans-serif" font-size="14" lengthAdjust="spacing" textLength="63" x="621.75" y="61.8467">Tag Core</text><line style="stroke:#555555;stroke-width:0.5;" x1="520.5" x2="753.5" y1="73" y2="73"/><rect fill="none" height="6" style="stroke:#C82930;stroke-width:1.0;" width="6" x="527.5" y="83.6484"/><text fill="#000000" font-family="sans-serif" font-size="14" lengthAdjust="spacing" textLength="116" x="539.5" y="89.9951">Tag LUT : Variant</text><line style="stroke:#555555;stroke-width:0.5;" x1="520.5" x2="753.5" y1="97.2969" y2="97.2969"/><rect fill="#F24D5C" height="6" style="stroke:#C82930;stroke-width:1.0;" width="6" x="527.5" y="107.9453"/><text fill="#000000" font-family="sans-serif" font-size="14" lengthAdjust="spacing" text-decoration="underline" textLength="67" x="539.5" y="114.292">Add Tag()</text><rect fill="#F24D5C" height="6" style="stroke:#C82930;stroke-width:1.0;" width="6" x="527.5" y="124.2422"/><text fill="#000000" font-family="sans-serif" font-size="14" lengthAdjust="spacing" text-decoration="underline" textLength="95" x="539.5" y="130.5889">Get Tag LUT()</text><ellipse cx="530.5" cy="143.5391" fill="#84BE84" rx="3" ry="3" style="stroke:#038048;stroke-width:1.0;"/><text fill="#000000" font-family="sans-serif" font-size="14" lengthAdjust="spacing" text-decoration="underline" textLength="154" x="539.5" y="146.8857">Get Tag Value_ByRef()</text><ellipse cx="530.5" cy="159.8359" fill="#84BE84" rx="3" ry="3" style="stroke:#038048;stroke-width:1.0;"/><text fill="#000000" font-family="sans-serif" font-size="14" lengthAdjust="spacing" text-decoration="underline" textLength="209" x="539.5" y="163.1826">Send Tag SetRequest_ByRef()</text><ellipse cx="530.5" cy="176.1328" fill="#84BE84" rx="3" ry="3" style="stroke:#038048;stroke-width:1.0;"/><text fill="#000000" font-family="sans-serif" font-size="14" lengthAdjust="spacing" text-decoration="underline" textLength="151" x="539.5" y="179.4795">Destruct Tag_By Ref()</text><ellipse cx="530.5" cy="192.4297" fill="#84BE84" rx="3" ry="3" style="stroke:#038048;stroke-width:1.0;"/><text fill="#000000" font-family="sans-serif" font-size="14" lengthAdjust="spacing" text-decoration="underline" textLength="92" x="539.5" y="195.7764">Get All Tags()</text><ellipse cx="530.5" cy="208.7266" fill="#84BE84" rx="3" ry="3" style="stroke:#038048;stroke-width:1.0;"/><text fill="#000000" font-family="sans-serif" font-size="14" lengthAdjust="spacing" text-decoration="underline" textLength="65" x="539.5" y="212.0732">Get Tag()</text><ellipse cx="530.5" cy="225.0234" fill="#84BE84" rx="3" ry="3" style="stroke:#038048;stroke-width:1.0;"/><text fill="#000000" font-family="sans-serif" font-size="14" lengthAdjust="spacing" text-decoration="underline" textLength="127" x="539.5" y="228.3701">Get Tag Property()</text><ellipse cx="530.5" cy="241.3203" fill="#84BE84" rx="3" ry="3" style="stroke:#038048;stroke-width:1.0;"/><text fill="#000000" font-family="sans-serif" font-size="14" lengthAdjust="spacing" text-decoration="underline" textLength="194" x="539.5" y="244.667">Get Tag SetRequest Event()</text><ellipse cx="530.5" cy="257.6172" fill="#84BE84" rx="3" ry="3" style="stroke:#038048;stroke-width:1.0;"/><text fill="#000000" font-family="sans-serif" font-size="14" lengthAdjust="spacing" text-decoration="underline" textLength="186" x="539.5" y="260.9639">Get Tag ValChange Event()</text><ellipse cx="530.5" cy="273.9141" fill="#84BE84" rx="3" ry="3" style="stroke:#038048;stroke-width:1.0;"/><text fill="#000000" font-family="sans-serif" font-size="14" lengthAdjust="spacing" text-decoration="underline" textLength="107" x="539.5" y="277.2607">Get Tag Value()</text><ellipse cx="530.5" cy="290.2109" fill="#84BE84" rx="3" ry="3" style="stroke:#038048;stroke-width:1.0;"/><text fill="#000000" font-family="sans-serif" font-size="14" lengthAdjust="spacing" text-decoration="underline" textLength="70" x="539.5" y="293.5576">New Tag()</text><ellipse cx="530.5" cy="306.5078" fill="#84BE84" rx="3" ry="3" style="stroke:#038048;stroke-width:1.0;"/><text fill="#000000" font-family="sans-serif" font-size="14" lengthAdjust="spacing" text-decoration="underline" textLength="197" x="539.5" y="309.8545">New Tag_From JSON Config()</text><ellipse cx="530.5" cy="322.8047" fill="#84BE84" rx="3" ry="3" style="stroke:#038048;stroke-width:1.0;"/><text fill="#000000" font-family="sans-serif" font-size="14" lengthAdjust="spacing" text-decoration="underline" textLength="162" x="539.5" y="326.1514">Send Tag SetRequest()</text><ellipse cx="530.5" cy="339.1016" fill="#84BE84" rx="3" ry="3" style="stroke:#038048;stroke-width:1.0;"/><text fill="#000000" font-family="sans-serif" font-size="14" lengthAdjust="spacing" text-decoration="underline" textLength="125" x="539.5" y="342.4482">Set Tag Property()</text><ellipse cx="530.5" cy="355.3984" fill="#84BE84" rx="3" ry="3" style="stroke:#038048;stroke-width:1.0;"/><text fill="#000000" font-family="sans-serif" font-size="14" lengthAdjust="spacing" text-decoration="underline" textLength="64" x="539.5" y="358.7451">Initialize()</text><ellipse cx="530.5" cy="371.6953" fill="#84BE84" rx="3" ry="3" style="stroke:#038048;stroke-width:1.0;"/><text fill="#000000" font-family="sans-serif" font-size="14" lengthAdjust="spacing" text-decoration="underline" textLength="70" x="539.5" y="375.042">Destruct()</text></g><!--class Tag Engine.lvlib:Tag--><g id="elem_Tag Engine.lvlib:Tag"><rect codeLine="31" fill="#FFFFFF" height="341.3438" id="Tag Engine.lvlib:Tag" rx="2.5" ry="2.5" style="stroke:#555555;stroke-width:0.5;" width="272" x="212" y="41"/><rect fill="#808080" height="32" rx="2.5" ry="2.5" style="stroke:#808080;stroke-width:0.5;" width="272" x="212" y="41"/><rect fill="#808080" height="2.5" style="stroke:#808080;stroke-width:0.5;" width="272" x="212" y="70.5"/><rect codeLine="31" fill="none" height="341.3438" id="Tag Engine.lvlib:Tag" rx="2.5" ry="2.5" style="stroke:#555555;stroke-width:0.5;" width="272" x="212" y="41"/><ellipse cx="330.75" cy="57" fill="#ADD1B2" rx="11" ry="11" style="stroke:#181818;stroke-width:1.0;"/><path d="M333.7188,62.6406 Q333.1406,62.9375 332.5,63.0781 Q331.8594,63.2344 331.1563,63.2344 Q328.6563,63.2344 327.3281,61.5938 Q326.0156,59.9375 326.0156,56.8125 Q326.0156,53.6875 327.3281,52.0313 Q328.6563,50.375 331.1563,50.375 Q331.8594,50.375 332.5,50.5313 Q333.1563,50.6875 333.7188,50.9844 L333.7188,53.7031 Q333.0938,53.125 332.5,52.8594 Q331.9063,52.5781 331.2813,52.5781 Q329.9375,52.5781 329.25,53.6563 Q328.5625,54.7188 328.5625,56.8125 Q328.5625,58.9063 329.25,59.9844 Q329.9375,61.0469 331.2813,61.0469 Q331.9063,61.0469 332.5,60.7813 Q333.0938,60.5 333.7188,59.9219 L333.7188,62.6406 Z " fill="#000000"/><text fill="#000000" font-family="sans-serif" font-size="14" lengthAdjust="spacing" textLength="26" x="351.25" y="61.8467">Tag</text><line style="stroke:#555555;stroke-width:0.5;" x1="213" x2="483" y1="73" y2="73"/><ellipse cx="223" cy="86.6484" fill="none" rx="3" ry="3" style="stroke:#038048;stroke-width:1.0;"/><text fill="#000000" font-family="sans-serif" font-size="14" lengthAdjust="spacing" textLength="93" x="232" y="89.9951">Name : String</text><ellipse cx="223" cy="102.9453" fill="none" rx="3" ry="3" style="stroke:#038048;stroke-width:1.0;"/><text fill="#000000" font-family="sans-serif" font-size="14" lengthAdjust="spacing" textLength="98" x="232" y="106.292">Value : Variant</text><rect fill="none" height="6" style="stroke:#C82930;stroke-width:1.0;" width="6" x="220" y="116.2422"/><text fill="#000000" font-family="sans-serif" font-size="14" lengthAdjust="spacing" textLength="238" x="232" y="122.5889">Enable ValChange Event : Boolean</text><ellipse cx="223" cy="135.5391" fill="none" rx="3" ry="3" style="stroke:#038048;stroke-width:1.0;"/><text fill="#000000" font-family="sans-serif" font-size="14" lengthAdjust="spacing" textLength="158" x="232" y="138.8857">ValChange : UserEvent</text><ellipse cx="223" cy="151.8359" fill="none" rx="3" ry="3" style="stroke:#038048;stroke-width:1.0;"/><text fill="#000000" font-family="sans-serif" font-size="14" lengthAdjust="spacing" textLength="167" x="232" y="155.1826">Timestamp : Timestamp</text><rect fill="none" height="6" style="stroke:#C82930;stroke-width:1.0;" width="6" x="220" y="165.1328"/><text fill="#000000" font-family="sans-serif" font-size="14" lengthAdjust="spacing" textLength="131" x="232" y="171.4795">Properties : Variant</text><ellipse cx="223" cy="184.4297" fill="none" rx="3" ry="3" style="stroke:#038048;stroke-width:1.0;"/><text fill="#000000" font-family="sans-serif" font-size="14" lengthAdjust="spacing" textLength="109" x="232" y="187.7764">Type : Enum {}</text><ellipse cx="223" cy="200.7266" fill="none" rx="3" ry="3" style="stroke:#038048;stroke-width:1.0;"/><text fill="#000000" font-family="sans-serif" font-size="14" lengthAdjust="spacing" textLength="166" x="232" y="204.0732">SetRequest : UserEvent</text><rect fill="none" height="6" style="stroke:#C82930;stroke-width:1.0;" width="6" x="220" y="214.0234"/><text fill="#000000" font-family="sans-serif" font-size="14" lengthAdjust="spacing" textLength="246" x="232" y="220.3701">Enable SetRequest Event : Boolean</text><ellipse cx="223" cy="233.3203" fill="none" rx="3" ry="3" style="stroke:#038048;stroke-width:1.0;"/><text fill="#000000" font-family="sans-serif" font-size="14" lengthAdjust="spacing" textLength="104" x="232" y="236.667">Stale : Boolean</text><ellipse cx="223" cy="249.6172" fill="none" rx="3" ry="3" style="stroke:#038048;stroke-width:1.0;"/><text fill="#000000" font-family="sans-serif" font-size="14" lengthAdjust="spacing" textLength="163" x="232" y="252.9639">TypeString : Array of I16</text><line style="stroke:#555555;stroke-width:0.5;" x1="213" x2="483" y1="260.2656" y2="260.2656"/><ellipse cx="223" cy="273.9141" fill="#84BE84" rx="3" ry="3" style="stroke:#038048;stroke-width:1.0;"/><text fill="#000000" font-family="sans-serif" font-size="14" lengthAdjust="spacing" text-decoration="underline" textLength="160" x="232" y="277.2607">Flatten to JSON Config()</text><ellipse cx="223" cy="290.2109" fill="#84BE84" rx="3" ry="3" style="stroke:#038048;stroke-width:1.0;"/><text fill="#000000" font-family="sans-serif" font-size="14" lengthAdjust="spacing" text-decoration="underline" textLength="192" x="232" y="293.5576">Unflatten from JSON Config()</text><ellipse cx="223" cy="306.5078" fill="#84BE84" rx="3" ry="3" style="stroke:#038048;stroke-width:1.0;"/><text fill="#000000" font-family="sans-serif" font-size="14" lengthAdjust="spacing" text-decoration="underline" textLength="161" x="232" y="309.8545">Get Property by Name()</text><ellipse cx="223" cy="322.8047" fill="#84BE84" rx="3" ry="3" style="stroke:#038048;stroke-width:1.0;"/><text fill="#000000" font-family="sans-serif" font-size="14" lengthAdjust="spacing" text-decoration="underline" textLength="159" x="232" y="326.1514">Set Property by Name()</text><ellipse cx="223" cy="339.1016" fill="#84BE84" rx="3" ry="3" style="stroke:#038048;stroke-width:1.0;"/><text fill="#000000" font-family="sans-serif" font-size="14" lengthAdjust="spacing" text-decoration="underline" textLength="181" x="232" y="342.4482">Set Properties from Initial()</text><ellipse cx="223" cy="355.3984" fill="#84BE84" rx="3" ry="3" style="stroke:#038048;stroke-width:1.0;"/><text fill="#000000" font-family="sans-serif" font-size="14" lengthAdjust="spacing" text-decoration="underline" textLength="70" x="232" y="358.7451">Destruct()</text><ellipse cx="223" cy="371.6953" fill="#84BE84" rx="3" ry="3" style="stroke:#038048;stroke-width:1.0;"/><text fill="#000000" font-family="sans-serif" font-size="14" lengthAdjust="spacing" text-decoration="underline" textLength="78" x="232" y="375.042">Construct()</text></g><!--class Tag Expr--><g id="elem_Tag Expr"><rect codeLine="54" fill="#FFFFFF" height="162.0781" id="Tag Expr" rx="2.5" ry="2.5" style="stroke:#555555;stroke-width:0.5;" width="246" x="7" y="442"/><rect fill="#808080" height="32" rx="2.5" ry="2.5" style="stroke:#808080;stroke-width:0.5;" width="246" x="7" y="442"/><rect fill="#808080" height="2.5" style="stroke:#808080;stroke-width:0.5;" width="246" x="7" y="471.5"/><rect codeLine="54" fill="none" height="162.0781" id="Tag Expr" rx="2.5" ry="2.5" style="stroke:#555555;stroke-width:0.5;" width="246" x="7" y="442"/><ellipse cx="95.75" cy="458" fill="#ADD1B2" rx="11" ry="11" style="stroke:#181818;stroke-width:1.0;"/><path d="M98.7188,463.6406 Q98.1406,463.9375 97.5,464.0781 Q96.8594,464.2344 96.1563,464.2344 Q93.6563,464.2344 92.3281,462.5938 Q91.0156,460.9375 91.0156,457.8125 Q91.0156,454.6875 92.3281,453.0313 Q93.6563,451.375 96.1563,451.375 Q96.8594,451.375 97.5,451.5313 Q98.1563,451.6875 98.7188,451.9844 L98.7188,454.7031 Q98.0938,454.125 97.5,453.8594 Q96.9063,453.5781 96.2813,453.5781 Q94.9375,453.5781 94.25,454.6563 Q93.5625,455.7188 93.5625,457.8125 Q93.5625,459.9063 94.25,460.9844 Q94.9375,462.0469 96.2813,462.0469 Q96.9063,462.0469 97.5,461.7813 Q98.0938,461.5 98.7188,460.9219 L98.7188,463.6406 Z " fill="#000000"/><text fill="#000000" font-family="sans-serif" font-size="14" lengthAdjust="spacing" textLength="60" x="116.25" y="462.8467">Tag Expr</text><line style="stroke:#555555;stroke-width:0.5;" x1="8" x2="252" y1="474" y2="474"/><rect fill="none" height="6" style="stroke:#C82930;stroke-width:1.0;" width="6" x="15" y="484.6484"/><text fill="#000000" font-family="sans-serif" font-size="14" lengthAdjust="spacing" textLength="204" x="27" y="490.9951">TagVarNames : Array of String</text><rect fill="none" height="6" style="stroke:#C82930;stroke-width:1.0;" width="6" x="15" y="500.9453"/><text fill="#000000" font-family="sans-serif" font-size="14" lengthAdjust="spacing" textLength="176" x="27" y="507.292">varNames : Array of String</text><rect fill="none" height="6" style="stroke:#C82930;stroke-width:1.0;" width="6" x="15" y="517.2422"/><text fill="#000000" font-family="sans-serif" font-size="14" lengthAdjust="spacing" textLength="217" x="27" y="523.5889">TagVarRefs : Array of DataValue</text><rect fill="none" height="6" style="stroke:#C82930;stroke-width:1.0;" width="6" x="15" y="533.5391"/><text fill="#000000" font-family="sans-serif" font-size="14" lengthAdjust="spacing" textLength="220" x="27" y="539.8857">TagVarTypes : Array of Enum {}</text><line style="stroke:#555555;stroke-width:0.5;" x1="8" x2="252" y1="547.1875" y2="547.1875"/><ellipse cx="18" cy="560.8359" fill="#84BE84" rx="3" ry="3" style="stroke:#038048;stroke-width:1.0;"/><text fill="#000000" font-family="sans-serif" font-size="14" lengthAdjust="spacing" text-decoration="underline" textLength="141" x="27" y="564.1826">Lookup Tag Values()</text><ellipse cx="18" cy="577.1328" fill="#84BE84" rx="3" ry="3" style="stroke:#038048;stroke-width:1.0;"/><text fill="#000000" font-family="sans-serif" font-size="14" lengthAdjust="spacing" text-decoration="underline" textLength="101" x="27" y="580.4795">Tag Expr Eval()</text><ellipse cx="18" cy="593.4297" fill="#84BE84" rx="3" ry="3" style="stroke:#038048;stroke-width:1.0;"/><text fill="#000000" font-family="sans-serif" font-size="14" lengthAdjust="spacing" textLength="78" x="27" y="596.7764">Construct()</text></g><!--class mupExpr--><g id="elem_mupExpr"><rect fill="#FFFFFF" height="48" id="mupExpr" rx="2.5" ry="2.5" style="stroke:#555555;stroke-width:0.5;" width="93" x="83.5" y="187.5"/><rect fill="#808080" height="32" rx="2.5" ry="2.5" style="stroke:#808080;stroke-width:0.5;" width="93" x="83.5" y="187.5"/><rect fill="#808080" height="2.5" style="stroke:#808080;stroke-width:0.5;" width="93" x="83.5" y="217"/><rect fill="none" height="48" id="mupExpr" rx="2.5" ry="2.5" style="stroke:#555555;stroke-width:0.5;" width="93" x="83.5" y="187.5"/><ellipse cx="98.5" cy="203.5" fill="#ADD1B2" rx="11" ry="11" style="stroke:#181818;stroke-width:1.0;"/><path d="M101.4688,209.1406 Q100.8906,209.4375 100.25,209.5781 Q99.6094,209.7344 98.9063,209.7344 Q96.4063,209.7344 95.0781,208.0938 Q93.7656,206.4375 93.7656,203.3125 Q93.7656,200.1875 95.0781,198.5313 Q96.4063,196.875 98.9063,196.875 Q99.6094,196.875 100.25,197.0313 Q100.9063,197.1875 101.4688,197.4844 L101.4688,200.2031 Q100.8438,199.625 100.25,199.3594 Q99.6563,199.0781 99.0313,199.0781 Q97.6875,199.0781 97,200.1563 Q96.3125,201.2188 96.3125,203.3125 Q96.3125,205.4063 97,206.4844 Q97.6875,207.5469 99.0313,207.5469 Q99.6563,207.5469 100.25,207.2813 Q100.8438,207 101.4688,206.4219 L101.4688,209.1406 Z " fill="#000000"/><text fill="#000000" font-family="sans-serif" font-size="14" lengthAdjust="spacing" textLength="61" x="112.5" y="208.3467">mupExpr</text><line style="stroke:#555555;stroke-width:0.5;" x1="84.5" x2="175.5" y1="219.5" y2="219.5"/><line style="stroke:#555555;stroke-width:0.5;" x1="84.5" x2="175.5" y1="227.5" y2="227.5"/></g><!--reverse link mupExpr to Tag Expr--><g id="link_mupExpr_Tag Expr"><path codeLine="64" d="M130,257.08 C130,305.16 130,382.71 130,441.5 " fill="none" id="mupExpr-backto-Tag Expr" style="stroke:#181818;stroke-width:1.0;"/><polygon fill="none" points="123,257.28,130,237.28,137,257.28,123,257.28" style="stroke:#181818;stroke-width:1.0;"/></g><!--SRC=[bPJ1Zjem48RlUOeHlRH2LDj3gmhr0YoqMwrejO6zhamooLeuTcfFQ2dbtTSEOHD24gYZIE3vD1x_ysSC4aYMe4bPW3wcJ3DI6eQUMNFf_YKm4SoOCGlMiLQP32TAME3DB5zdcD8XwWBvcAywCbEI2k0cNtNW6pARu-p0ppVkyIeqgTI-i594Ae6GQmo8A-a5BWlq5Yo6gOovnFTY8_Xgw3OcIcCFTjukuYZ2FGpSvlro0KDuP9epITxE42CUx66N83qh1ut242puzbrJyAkLiCZI2FIFm2CJ6JwDjmyODOC-olmSy94Uy5U6XhhmMnlNMP0djnoqWgw0aH2ECvqbTjV_KwiKDMsxgR9sc6vGqaLD9izCndWbd64pCiVVxHSeWaypRNtotVynjpQG4O-lxa8RU8qkTv8JPuB_nUuksgYtzxmkzrQDsv_RhzQwrYVDPLnkvnfLtNmq-bIobS2wu9OSAoMGoPCK1JA4fK6TWsLumUsu89QaDlpwkpodK8EZQQYYlzYcBkrKPWdizkL-nJLDXnwhhvkhgNoVcC2cW3lx89UDZhHcMr0Ht7turDIMcM14ADs0kUYOfOmAEhhAOSxFHzF0QWkkbUqM-s_IIPyNKbZlekyQehRyTbl-INLzXjf6kzfCLTcQDGURAvX3AZl9JgXRHYmtTXrqBJqXNurrVgLxfTPPMWwIbb5ulA4rs46wDarwIPOUfFZoRp2eI6FLUW40]--></g></svg>